<svg version="1.0" xmlns="http://www.w3.org/2000/svg" width="533.333" height="533.333" viewBox="0 0 400 400"><path d="M307.4 1.5c-2.4 1.8-.7 1.9 2.6 0 1.6-.9 1.9-1.4.9-1.5-.8 0-2.4.7-3.5 1.5zM329.4 1.5c.5 1.5.2 1.7-2.6 1.1-2-.3-2.8-.3-2 .3 1.1.6 1 .9-.5 1.4-1 .3-17.1 5.9-35.7 12.6-25.7 9.1-34.9 12-38 11.8-4-.3-19.3 3.6-21 5.3-.7.7.6 1 3.4 1 2.5 0 5.1.4 5.8.9 1.1.7 4.2 5.6 4.2 6.7 0 1.5-8.1 8.5-10.1 8.8-1.4.1-3 .5-3.6.9-.6.4-1.4.3-1.8-.2-.3-.6-2.6-2-5-3.2-2.5-1.2-4.5-2.8-4.5-3.5 0-1 2-3 8.9-8.6 3.3-2.8-1.4-1.7-10.6 2.4-9.6 4.2-10 4.3-21.1 4.3-7.6 0-11.2-.4-11.2-1.1 0-.6-1.9-2.4-4.1-3.9-3.1-2-5.9-2.9-11.4-3.4-6-.6-7.8-1.1-10-3.3-1.4-1.4-3.7-2.8-5.2-3.1-3.4-.6-8.1 1-8.7 3.1-1.2 3.7-1.5 10.1-.6 10.7.5.3 1.2 2.8 1.6 5.5.4 2.7 1 4.7 1.5 4.4.5-.2 1.1.7 1.5 2.1.3 1.3 1 2.2 1.5 1.9.5-.3.7-1 .4-1.5-.8-1.2 10.9-1.8 12.1-.6.9.8-1.9 6.7-3.1 6.7-.8 0-1.7.5-2.1 1.2-.5.8-.1.9 1.2.5 1.6-.6 1.5-.4-.3 1.2-1.3 1.1-2.3 2.6-2.3 3.4 0 .8-.7 1.7-1.5 2.1-.8.3-1.5 1.2-1.5 2s-.8 2.1-1.8 2.8c-1.6 1.1-3.7 5.8-2.7 5.8.2 0 1.7-1.2 3.3-2.8 6.5-6.1 8.1-7.2 9.8-7.1 1.8 0 1.7.1-.1.9-1.3.6-1.5.9-.5.9.8.1 3.2 1.7 5.3 3.6 2.1 1.9 4.2 3.5 4.7 3.5 1 0 4.8 6.3 5.6 9.5.3 1.4.9 2.5 1.3 2.5 1.4 0 3.2 10 2.1 12-.7 1.3-.6 3.3.2 6.5 1.1 4.2 1.5 4.5 4.4 4.5 1.8 0 3.5-.4 3.9-.9.3-.6 2-.4 4.1.5 2.8 1.2 4.3 1.3 6.7.5 2.2-.8 3.4-.8 4.5.1.8.7 2.6 1.4 4 1.6 1.4.2 3.4.8 4.4 1.3 2.2 1.2 2.3.6.2-2.6-.9-1.4-1.2-2.9-.8-3.7.5-.7.9-2.4 1-3.8.9-13.2 5.7-23.1 13.1-26.9 2.3-1.1 8.3.3 8.3 2 0 .5.7.9 1.5.9s1.5.4 1.5 1c0 .5-.9 1-2.1 1-1.9 0-1.9.1-.5 1.6.9.8 2.1 2.4 2.6 3.5 1 1.9 1 1.9-2.9.3-2.1-.8-4.7-1.4-5.7-1.2-1.2.2-2-.5-2.3-2-.6-2.2-.7-2.1-2.5 1.3-1.1 1.9-2.5 3.5-3.3 3.5-1 0-1.1.5-.4 1.9.6 1 .7 2.2.3 2.5-.4.4.1 1.2 1.1 1.7 1.9 1.1 2.3 5.9.5 7.7-.8.8-.7 2.2.6 5.7 1.4 3.5 2.3 4.5 4 4.5 1.2 0 3.1.6 4.1 1.4 1.8 1.3 1.8 1.4-.1 1.8-5.7 1.5-10.9.2-9.8-2.6.2-.6-.5-1.2-1.6-1.3-2.3-.2-3.6 1.9-2.4 3.9.5.7.9 1.7 1 2.3.1.5.7 3 1.4 5.5 1.1 4.3 1.1 4.5-1.4 6.5-2.8 2.2-3.3 4.1-1.3 4.8.9.3.9.8.1 1.8-1.6 2.2-1.6 7.5.1 8.9 1.9 1.6 1.9 3.7 0 5.6-.8.9-1.5 2.6-1.5 3.9 0 2.8-3.7 9.5-5.2 9.5-.6 0-1.8.8-2.7 1.8-1.1 1.3-3 1.8-6.1 1.7-2.5 0-5.6.5-7 1.1-2 1-2.9.9-4.5-.2-1-.8-3.6-1.4-5.7-1.4-2.7 0-5.2-1-8.5-3.4-2.7-1.8-7-4.4-9.8-5.7-2.7-1.3-5.1-2.7-5.3-3.1-.2-.5-1.4-.5-2.6-.2-1.6.4-3.3-.3-5.5-2.2-1.7-1.4-3.5-2.4-3.8-2-.4.3-1.9-.6-3.5-2.1l-2.8-2.7v3.1c0 2.8-.8 3.6-9.8 9l-9.7 6-1.9-5.8c-1.6-5.2-1.7-6.7-.6-14.1 1.3-9.2 1.1-19-.5-19.5-.7-.2-1.1 3-1 8.9 0 8.9-.8 12-5.1 19.6-.7 1.2-5.8-6.2-10.3-15.2-5.1-9.9-8.4-14.6-9.6-13.4-.7.7 2.3 7.8 4.2 9.6.8.8 1.9 2.5 2.4 3.6.6 1.2 1.6 3.2 2.4 4.6 1.7 2.9 2 7.6.5 8.5-.5.3-1.9.1-3.1-.5-3-1.7-3.5-.5-1 2.6 2.9 3.7 2.8 5.8-.4 5.2-2-.4-2.3-.3-1.4.8.6.7.8 2.2.4 3.4-.3 1.1-.2 2 .4 2 .5 0 1.1 1 1.3 2.2.2 1.3.9 2.2 1.6 2 .6-.1 1.2.1 1.1.5-.2 1.6 1.4 5.3 2.2 5.3.5 0 .9-1.5.9-3.4s.2-4.1.5-4.9c.4-.9-.1-1.3-1.6-1.3-4.1.2-2.9-1.9 2.8-4.6 6.2-3 7.3-2.9 7.3.6 0 1.3.9 3.5 2 4.9 1.6 2.1 1.9 3.4 1.4 6.9-1 6.5-5.5 10.4-7.1 6.1-.6-1.4-.7-1.3-1.4.5s-1.1 1.9-4.3 1c-4.7-1.5-9.2-6.5-10.6-11.9-.7-2.4-1.4-10-1.6-16.9-.2-6.9-.7-14.5-1-17-.8-5.6-1.1-10.5-1.5-24-.3-9.3-.1-10.5 1.4-10.5.9 0 1.7-.5 1.6-1 0-.6-.7-.9-1.5-.7-2 .4-1.7-1.6.4-2.1 1.5-.4 1.6-.5 0-.6-1.8-.1-3.6-6.1-2.4-8 1-1.5 34.3-12.2 39.1-12.6 2.2-.1 4.6-.3 5.3-.4.7-.1 1.2-1.5 1.2-3.6 0-1.9.4-3.5.9-3.5.8 0 1.2 3.2 2.4 18 .2 3.2.5 2.8 2.6-4 1.3-4.1 3.4-9.9 4.7-12.8 2.2-5.1 2.9-11.2 1.2-11.2-.7 0-13.8 4.7-24.8 9-3 1.1-13.1 4.8-22.5 8.2-9.3 3.4-17.3 6.4-17.8 6.8-.6.5.3 14 1.8 27 3.1 26.3 5.1 51.7 7.5 96.7.4 9.5 1.1 17.7 1.4 18.2.3.5 1.3 10.1 2.1 21.3 1.8 24.1 1.7 21.8.7 21.8-1.6 0-43.2-24.3-53.7-31.4-3.3-2.2-6.5-4.1-7-4.2-.6-.1-3.1-1.6-5.7-3.3-3.4-2.3-5.1-4.3-6.2-7.4-1.6-4.3-4-18.7-3.3-19.4.6-.5 9.6 1.7 12.1 3 1.6.8 1.8.6 1.3-.8-.4-.9-.7-1.9-.7-2.1 0-.3-2.9-1.8-6.4-3.3-3.5-1.6-6.6-3.3-7-3.9-.3-.5-1.2-6.3-2.1-12.8-1.8-14.3-2.3-16.4-4-15.8-.8.3-1.4-.8-1.8-3.4-.5-2.8-1.3-4.2-3.2-5-2.1-1-2.5-1.8-2.6-5.9 0-2.7-.2-5.6-.4-6.6-.2-.9.1-1.7.6-1.7s.9-1.3.9-2.9c0-3.5 3-5.3 3.1-1.8 0 1.2.6 4 1.3 6.2l1.3 4 .4-4.4c.3-2.8 0-4.8-.8-5.7-1.7-1.6-1.6-3.6.1-6 1.3-1.7 1.5-1.8 2.1-.2.4.9.7 3.6.8 6 .1 2.4.7 4.2 1.2 4.1 1.4-.3 1.8-3.8 1-9-.6-4.1-.9-4.4-3.3-4.1-2.7.3-2.7.2-3.5-7-.9-8.2-.1-10.2 4.1-10.2 1.4 0 2.2-.3 1.8-.7-.4-.4.7-1.2 2.5-1.8 1.8-.6 3.5-1.7 3.7-2.5.6-1.6-5.3-.8-15.1 2.1L0 114.2v13.1c0 7.3.5 15.9 1 19.3.5 3.3 1.7 12.5 2.5 20.4.8 7.9 2.4 21.1 3.5 29.3 2.2 16.6 2.5 23.6 1 22.1-.5-.5-1.6-6.6-2.4-13.4C3 183.7 1.1 169.8.5 169.2c-.3-.3-.5 16.4-.5 37 0 34 .2 37.6 1.7 38.2 1 .4 2.3-.1 3.5-1.4 1-1.1 2.4-2 3-2 .7 0 .8-1.4.4-4-.5-3.1-.3-4 .8-4 1.5 0 2.8 4.8 1.5 5.6-1.4.8 2 3.7 5.8 5 1.9.7 4.7.9 6.6.5 2.3-.6 4-.3 6.2 1.1 3.8 2.3 3.8 2.3 11.8 4.7 5.7 1.8 16 7.1 17.7 9.1 1.4 1.6 12.3 10 13.1 10 .4 0 .6.6.3 1.4-.3.7.2 1.6 1.1 2 .9.3 1.3 1 1 1.6-.3.5.3 1 1.5 1s1.8.4 1.5 1c-.3.5-.1 1 .5 1s.9.4.6.8c-.3.5.7 1.5 2.2 2.3 6.7 3.4 14.2 10 14.2 12.5 0 .9.4 1.3.9.9.5-.3 1.2-.1 1.5.4.4.5-.6 1.4-2.1 2-1.9.8-2.1 1-.6.7 1.9-.3 2.1 0 1.6 3.1-.4 2.4-.2 3.8.7 4.3 1.1.7 1.1 1.1.1 2.4-1.1 1.3-1.1 1.6.2 1.6 2.1 0 2.9 2.8 1.1 3.8-.9.5-1.2 1.5-.8 2.5.6 1.7 2.1 2.2 5.6 1.9 1-.1 1.8.3 1.8.9 0 .5-.3.8-.7.6-2.2-1.3-4.7 1.1-4.9 4.6-.2 2.3.2 3.6.9 3.4.7-.1 1.1.4 1 1-.4 1.8.3 1.6 2.6-.8 1.2-1.3 2.1-1.7 2.6-1 .9 1.6 2.5 1.4 2.5-.3 0-1.4 2.9-2.6 6.7-2.6 1.2 0 2.3-.4 2.5-.9.2-.5.9-.3 1.6.5 1.1 1.2.6 1.4-3.4 1.4-3.8 0-4.5.3-4 1.6.3.9.6 1.8.6 2 0 .2.5.4 1.1.4.5 0 .8-.4.5-.9-.8-1.2 4.6-2.1 6.4-1 1.1.6.6.8-1.8.9-1.9 0-3.1.4-2.7 1 .3.5 1.3.6 2.3.3.9-.3 1.4-.2.9.2-.4.5.5 1.4 2 2.1l2.8 1.3-2.8-.4c-1.5-.2-2.7.1-2.7.6s.8.9 1.8.9 2.5.8 3.4 1.9c1.5 1.8 1.4 1.9-.8 1.7-1.4 0-2.4-.7-2.4-1.6-.1-1.1-.4-1-1.5.4-1.4 1.9-1.5 1.8-1.5-1 0-1.6-.4-2.4-.8-1.8-.4.6-1.4 1.2-2.2 1.3-6.4.6-9.1 1.4-7.9 2.3 1 .7.8.8-.8.3-1.2-.3-2.4-.1-2.7.4-.4.6-1.3.8-2.1.4-.8-.3-1.5 0-1.5.5 0 1.6 1.4 2.2 3 1.2 1.6-1 4.2-.2 3.4 1.1-.3.5.1.9 1 .9.8 0 2.2.3 3.1.7 1.4.5 1.6.2 1.1-1.4-.4-1.4-.1-2.3.9-2.7.8-.3 1.5-.2 1.5.3s1 1.1 2.2 1.4c1.8.5 1.9.8.8 2.2-1.1 1.3-1 1.5.6.9 1.8-.6 1.8-.6.2 1.1-1.6 1.7-1.9 1.7-3.5.3-1.8-1.5-4.8-1.4-3.8.2.6.9-3.3 4.5-4.1 3.7-.3-.3.3-1.6 1.5-2.8 1.1-1.2 1.8-2.5 1.6-2.8-.3-.2-1.2.5-2.1 1.7-.8 1.2-2.4 2.2-3.5 2.2-1 0-1.9.4-1.9.9 0 1 3.5 2.1 7.2 2.1 1.5 0 3 .5 3.3 1 1.2 1.9 3.8 1.1 3.2-1-.6-2.4-.4-2.4 3.1-.4 2.3 1.4 2.4 1.4.8.1-1.8-1.5-1.8-1.7 0-3.4 1.5-1.6 1.7-1.6 1.2-.1-.4 1-.1 1.9.8 2.2 2.2.8 2.6.7 1.9-.4-.4-.6.7-1.5 2.4-2.1 1.7-.6 3.1-1.7 3.1-2.5s.5-1.4 1.1-1.4c.6 0 .8-.9.4-2.3-.6-1.8-.5-2 .6-.9 1.7 1.6 2.9 1.5 2.9-.3 0-.8 1.2-1.7 2.8-2.1 1.5-.3 3.3-.7 3.9-1 1.8-.5 1.6 1.3-.2 2-.8.3-1.2 1.2-.9 2 .7 1.7 4.4 2.9 4.4 1.3 0-.6.3-.8.6-.4.3.3.3 1.5-.1 2.7-.5 1.7-.9 1.9-2.1.9-.8-.6-1.8-.9-2.1-.5-.8.8 1.6 2.6 3.5 2.6.6 0 1.2-.5 1.2-1.1 0-.6.7-.3 1.6.6.9.8 2 4.4 2.4 7.8.5 3.4 1.6 9.5 2.5 13.6.9 4.1 1.8 10.4 2 14 .2 3.6.7 9.9 1.1 13.8l.6 7.3h19.5c18.7 0 19.4-.1 18.8-1.9-.3-1.1-.1-2.2.4-2.6.6-.3.7-1.4.1-2.9-.5-1.5-.4-4.3.5-7.7 1.2-5.1 1.5-5 1.9 1.1.1.8 1 3.5 2 5.8 1.6 3.5 1.8 4.7.8 6.3-1.2 1.9.5 1.9 99.8 1.9h101V252.2c0-81.2-.4-147.1-.9-146.4-.7 1.1-.9 1.1-1.4-.2-.4-.9-.1-1.5.6-1.3.9.1 1.3-11.7 1.5-52.1L400 0h-34.1c-24.5 0-33.8.3-33.3 1.1.4.7-.1.7-1.6-.1-2-1.1-2.2-1-1.6.5zm9.8 15c.3 1.3 0 2.6-.6 2.8-1.4.5.7 4.3 2.2 4 .6-.1.6 1.2.1 3.8-.5 2.2-.7 4.4-.4 5 .4.5 0 .9-.7.9-.9 0-1 .2-.2.8.8.5 1.1 3.9.9 10.2-1.1 33.8-1.6 46-3 75-3.3 69.4-5.9 105.5-7.5 102.9-.6-.8-.9-.6-1.2.7-.5 1.9-.8 1-2.3-6.2-.7-3.3-2.8-2.6-3.6 1.2-1.5 7.9-1.9-38.4-.4-58.9.3-3.8.1-6.7-.4-6.7-1.9 0-2.5 4-1.8 13.4.2 3.2-2.8 6-7.6 7.2l-2.8.6.7-7.2c.8-9-.6-47.5-1.6-44-2 7-4.8 45.7-4 53.3.4 2.6.4 5 .1 5.2-.2.3-3.7.5-7.6.5-6.6 0-7.3.2-8.3 2.4-1.2 2.6-1.4 2.6 18.7 4.2 7.7.6 8.4.5 7.8-1-.5-1.3-.2-1.7 1-1.4 2.1.4 3 3.8 1.3 4.8-2.4 1.5-3.7 10.6-4 27.2l-.2 10.8-2.7-.7c-1.4-.3-2.7-1-2.9-1.5-.5-1.1-3.2-1-3.2.1 0 1.3 2.2 2.7 5.3 3.5 1.5.3 2.7 1.3 2.7 2.1 0 1.7-.9 1.6-16-1.3l-8.4-1.7.2-9.1c.4-10.4.1-10.8-7.2-11.8-5.6-.7-5.1-.4-6-3.2-1-3.4 2.2-6.3 7.4-6.8 4.2-.3 4.5-.5 4.8-3.6.2-1.7 0-3.9-.3-4.8-.6-1.4-.9-1.3-1.8.8-.8 2-1.1 2.2-1.4.8-.2-.9-1-1.5-1.8-1.2-.7.3-1.6.1-2-.5-.3-.6-2.1-1.1-4-1.1-3.3 0-3.3-.1-5.9-8.3-4.3-13.1-6.1-16.1-13.2-21.7l-6.6-5.2.3-9.6c.1-5.3.8-11.5 1.5-13.7 1.2-4.1 2.6-10.6 3-13.8.1-1 .9-2.4 1.9-3.1 1.1-.8 1.6-2 1.2-2.9-.3-.9-.1-1.7.4-1.9 2.3-.8 3.8-8.6 3.9-20.3 0-6.6.3-13 .6-14.2.5-1.9 2.5-2.6 15.3-5.7 8-1.9 16.4-3.8 18.6-4.1l4.1-.7-.3 7.9c-.1 4.3-.5 14.2-.9 22-.5 10.1-.3 14.3.4 14.3.6 0 1.4-1.5 1.8-3.4l.6-3.4 10.5-.1c5.8-.1 10.9-.4 11.4-.7.5-.3.9-1.4.9-2.4 0-1.8-.7-2-6.2-1.9-3.5.1-8.7.1-11.5 0L303 95l.2-4c.1-4.4.4-5 3.5-6.7 1.4-.8 2.4-.9 2.8-.3 1.1 1.8 3.5 1.1 2.9-.8-.4-1-.2-1.3.3-.7.4.5 1.9 1.6 3.2 2.3 2.1 1.2 2.3 1.2 1.8-.2-.4-1-.1-1.6.8-1.6.8 0 1.5-.8 1.5-1.7 0-1.3.3-1.4 1.2-.5.7.7 2 1.2 3 1.2 1.4 0 1.8-.8 1.9-3.8 0-2 .2-4.6.4-5.7.2-1.1.9-10.6 1.5-21 .5-10.5 1.3-20.1 1.6-21.5.3-1.4.7-3.4.9-4.5.2-1.1.8-3.9 1.3-6.2.5-2.3.7-4.4.5-4.7-.3-.3.4-.4 1.6-.3 1.4.1 2.1.8 2.1 2.2 0 1.6-.2 1.7-1 .5-1.1-1.7-1.3-1-.4 1.4s2.4.9 2.4-2.5c0-3.5 1.5-3.1 2.2.6zm2.7 1.5c0 .9-.4.8-.9-.5-.5-1.1-.9-2.7-.9-3.5 0-.9.4-.8.9.5.5 1.1.9 2.7.9 3.5zm-33.4-1.8c-2.2.6-4.3 1.5-4.6 2.1-.4.5-1.2.6-1.8.3-.6-.4-1.1-.4-1.1.1 0 .4-3.4 1.9-7.5 3.2-4.1 1.4-7.3 2.7-7 2.9.2.2 3.4-.5 7-1.7s7-1.9 7.5-1.6c.6.4 1 .1 1-.4 0-.6 1.2-1.1 2.8-1.1 1.5 0 4.5-.7 6.7-1.5 4.8-1.7 6.5-1.8 6.5-.5 0 .5-.6 1-1.4 1-.7 0-1.6.9-1.9 2-.6 2.3 1.1 2.6 3.8.6 1-.7 1.6-1.9 1.3-2.7-.4-1 .6-1.5 3.7-1.7 3.7-.2 4.4.1 5 1.9.4 1.1.2 2.6-.3 3.1-.6.6-.8 1.7-.5 2.5.5 1.3.1 1.2-2.1-.2-1.8-1.2-2.6-2.4-2.3-3.7.3-1 .1-1.6-.4-1.2-.5.3-.9 1-.9 1.6 0 .6-.8 1.7-1.7 2.5-1.6 1.2-1.5 1.3 1 .7 3-.7 3.8.9 1 2.1-3.1 1.4-4.7 1.7-7.8 1.6-2 0-2.5.2-1.7.8 1.1.7 1 1-.3 1.5-.9.3-2.5.6-3.5.6s-2.5.6-3.2 1.2c-1.6 1.6-7.8 3.8-10.5 3.8-1.9 0-6.5 3.9-4.7 4.1 1.8.1-38 11.9-40 11.9-.6-.1 0-.7 1.4-1.5s2.2-1.4 1.8-1.5c-.4 0 .4-2.4 1.7-5.3 1.4-2.8 2.5-6.2 2.5-7.5 0-1.4.6-2.2 1.8-2.2.9 0 2.4-.5 3.2-1 1-.6.2-.8-2.5-.3-2.8.4-3.7.2-3-.5 1.4-1.5 49.5-17.1 52.5-17 1.8 0 1.3.3-1.5 1zm-61.5 47v7.3l-3-4.5c-1.6-2.5-3-5.7-3-7.3 0-2.3.4-2.7 3-2.7h3v7.2zM161.5 67c.3.5.1 1-.4 1-.6 0-1.1-.5-1.1-1 0-.6.2-1 .4-1 .3 0 .8.4 1.1 1zm232.2 16.6c.3 1 .1 3.1-.5 4.7-.9 2.2-.9 3.3-.1 3.8s.8.9-.1 1.4c-.7.4-1.6.2-2-.4-.5-.9-1-.8-2 .4-1.8 2.2-3.7 1.8-4.2-.9-.6-2.9 1.6-7.7 2.5-5.5.4 1 .6 1 .6.1.1-.7-.6-1.5-1.4-1.8-.8-.4-1.2-1-.9-1.5.3-.5.9-.7 1.4-.4.5.3 1.1.1 1.5-.5 1-1.6 4.5-1.2 5.2.6zM240.5 86c.3.6-.1.7-.9.4-1.8-.7-2.1-1.4-.7-1.4.6 0 1.3.4 1.6 1zm132.7 10.6c-.5 1.1-.7 2.5-.5 3.2.4.9-.5 1.2-3.1.9-2-.2-3.6-.1-3.6.3s-1.4.7-3.1.7c-2.8 0-3-.3-2.7-3.1.2-2 .9-3.1 1.8-3.1 1 0 1.4.8 1.2 2.2-.2 1.3.2 2.3.9 2.3s.9-1 .7-2.5c-.3-1.4-.1-2.8.3-3.1.5-.3.9 0 .9.7 0 .9.4.9 1.5-.1.8-.6 1.9-.9 2.4-.6.5.4 1.3.1 1.6-.5 1.2-1.9 2.8.6 1.7 2.7zM358.8 99c-.1 2.2-.5 4-.9 4s-.6-1.7-.4-3.8c.5-4.5.4-4.2 1-4.2.3 0 .4 1.8.3 4zm-116.8.1c0 .5-.4.9-1 .9-.5 0-1-.7-1-1.6 0-.8.5-1.2 1-.9.6.3 1 1 1 1.6zm152.9 5.9c-.6.4-2 .5-3 .3-1.3-.4-1.9 0-1.9 1.1 0 1 .6 1.3 1.8.9.9-.3 1.4-.3 1 .1-1.1 1.3-6.8 1.8-6.8.6 0-.6.4-.9.9-.5.6.3 1.5-.3 2-1.4.8-1.3 2.1-1.9 4.2-1.9 1.7.1 2.5.4 1.8.8zM257 109c0 .5-.2 1-.4 1-.3 0-.8-.5-1.1-1-.3-.6-.1-1 .4-1 .6 0 1.1.4 1.1 1zm-17.9 6.8c-.6.2-1.1 1-1.1 1.8 0 1.8-2.4 1.8-4-.1-.9-1-.9-1.5-.1-1.5 1.4 0 5.1-3.6 5.2-5.3.1-.6.4.1.6 1.8.3 1.6 0 3.1-.6 3.3zm132.3 17.9c-.3 5.4-.9 15.6-1.2 22.8-.7 12.3-.8 13-2.9 13.3-2.9.4-3.7-2.4-2.8-10.1.4-3.4.9-7.9 1-10.2.3-4.6 1.3-7.5 2.6-7.5.6 0 .9-1 .7-2.3-.3-2.4 1.1-13.7 1.9-15 1.1-1.8 1.2-.1.7 9zm-9-2.7c.3 2.2.1 11.5-.5 20.7-1.7 26.5-1.9 23.8 1.6 23.8 1.7 0 3.3-.5 3.7-1 1-1.3.9 9.4-.1 11.9-.4 1.1-1.6 2-2.7 2.1-1 .1-3.4.5-5.2.9l-3.3.8 3-5.4c1.7-3 3.1-5.8 3.1-6.2 0-.3-1.5-.6-3.2-.5-1.8.2-4.3-.3-5.4-.9-2.4-1.3-3.7-6.1-2.7-9.9.3-1.6.2-2.4-.4-2-.5.4-1-.7-1-2.4 0-2.1.4-2.8 1.4-2.5 1 .4 1 .1 0-1.5s-.9-2.1.3-2.9c.8-.5 1-1 .4-1-1.5 0-2.5-3.8-1.3-4.6.6-.3.7-1.4.4-2.4-.9-2.7 1.4-10.1 3.6-12.1 1-.9 1.9-2.1 1.9-2.8 0-.6.7-1.1 1.6-1.1 1.3 0 1.4-.3.5-1.4-1-1.1-.8-1.7.6-2.5 2.8-1.6 3-1.4 3.7 2.9zm-138.1 14.6c-.4 1.1-.8 1.2-2 .3-1.1-1-1.1-1.4-.1-2 1.7-1 2.8-.2 2.1 1.7zM13.5 172c-.3.5-1.4 1-2.3.9-1.4 0-1.3-.2.3-.9 2.7-1.1 2.7-1.1 2 0zm354.2.6c-.3.3-1.2.4-1.9.1-.8-.3-.5-.6.6-.6 1.1-.1 1.7.2 1.3.5zm-17 14c-.3.3-1.2.4-1.9.1-.8-.3-.5-.6.6-.6 1.1-.1 1.7.2 1.3.5zm-20.3 39.8c-.8 2-2.4 2.1-2.4 0 0-.8.5-1.2 1-.9.6.3 1 .1 1-.6s.2-1 .5-.7c.3.3.3 1.3-.1 2.2zm-12.8 3.3c-1.1 1.1-1.9-.6-1.1-2.4.8-1.7.8-1.7 1.2 0 .3 1 .2 2.1-.1 2.4zM140 239.9c-1.1 4.2-1.6 4.6-4.4 3.5-2.3-.9-2-1.9 1.6-6s4.4-3.4 2.8 2.5zm190 2.8c0 1.5-.2 1.5-2.4.7-2.3-.9-2-2.3.4-2.1 1.1.1 2 .7 2 1.4zm34 .8c0 .8-.3 1.5-.7 1.6-.5 0-1.6.2-2.5.4-1 .2-1.8-.1-1.8-.5 0-.9 2.9-2.9 4.3-3 .4 0 .7.7.7 1.5zm-251.9 7c2.7.5 4.7.1 7.6-1.4 3.9-2 8.3-2.4 8.3-.9 0 .4.6.8 1.4.8.9 0 1.3-.7 1.1-2-.4-1.8-.2-1.9 1.9-.5 1.2.8 2.5 1.3 2.8.9.3-.3.9-.1 1.3.5.3.6.3 1.1-.2 1.1-1.5 0-1.4 17 .1 22.4.8 2.8 1.5 8.1 1.5 11.8.1 5.9-.1 6.8-1.9 7.8-1.9 1-2.6.7-5.5-2.3-2.3-2.4-3.7-3.1-4.4-2.4-.7.7-2 0-4.1-2.3-1.6-1.7-3-2.7-3-2 0 .6-.5.8-1 .5-.6-.4-.8-1.1-.5-1.6.4-.5.2-.9-.4-.9-.5 0-2.2-1.1-3.7-2.5s-3.3-2.5-4-2.5c-.8 0-1.4-.7-1.4-1.6 0-1.3-.3-1.4-1.4-.5-1.8 1.5-2.1.6-3.6-9.5-.7-4.3-1.5-9.5-1.9-11.4-.4-1.9-.5-4.3-.3-5.2.3-1.6.7-1.5 4 .7 2 1.3 5.3 2.7 7.3 3zM363 250c0 .5-.7 1-1.6 1-.8 0-1.2-.5-.9-1 .3-.6 1-1 1.6-1 .5 0 .9.4.9 1zm-260 72.1c0 .5-.7.9-1.5.9-.9 0-1.2-.6-.9-1.5.6-1.5 2.4-1.1 2.4.6zm4.3.6c-.7.2-1.9.2-2.5 0-.7-.3-.2-.5 1.2-.5s1.9.2 1.3.5zm21.7 14.5c0 .8-1.2 1.2-3.2 1.1-4.6-.2-4.8-.5-.8-1.3 1.9-.4 3.6-.8 3.8-.9.1 0 .2.5.2 1.1zm129 5.4c-.7.7-2 1.4-2.9 1.4-1.4-.1-1.4-.2.2-1.4.9-.7 1.7-2 1.7-2.8 0-2.5 1.5-3.1 1.8-.8.2 1.1-.2 2.8-.8 3.6zm-132.6-1.7c1.4.5 1.6 1 .7 1.5-1.6 1-6.3-.2-5.6-1.4.7-1.2 2.2-1.2 4.9-.1zm125.8 22.3c-.7.7-1.6.7-2.9-.1-1-.6-1.3-1.1-.5-1.1.7 0 1-.5.6-1.1-.4-.7.1-.7 1.6.1 1.5.8 1.9 1.5 1.2 2.2zm-8.5 19.4c-.3.3-1.2.4-1.9.1-.8-.3-.5-.6.6-.6 1.1-.1 1.7.2 1.3.5zM263 389c0 .5-.4 1-.9 1-.6 0-1.3-.5-1.6-1-.3-.6.1-1 .9-1 .9 0 1.6.4 1.6 1z"/><path d="M261.1 108.6c0 1.1.3 1.4.6.6.3-.7.2-1.6-.1-1.9-.3-.4-.6.2-.5 1.3zM302.3 114.2c-1.7 2.3-2.4 5-1.1 4.6.7-.3 1.5-1.6 1.9-3.1.8-3 .6-3.3-.8-1.5zM293.3 114.7c-1.8.2-3.3.8-3.3 1.4 0 1.4 5.4 1.1 7.6-.6 2-1.5 1.9-1.6-4.3-.8zM292.2 123.4c-5.4.6-9 1.5-8.5 2 .4.5-1.2.6-4 .3-7-1-22.7.3-22.7 1.8 0 1.2 5.5 1.3 22 .1 4.1-.3 10.7-.7 14.5-.9 13.8-.6 13.5-.5 13.5-2.7 0-2.3-.5-2.3-14.8-.6zM324.5 211c-.3.5-.1 1 .4 1 .6 0 1.1-.5 1.1-1 0-.6-.2-1-.4-1-.3 0-.8.4-1.1 1zM279 27c-.9.6-1 1-.3 1 .6 0 1.5-.5 1.8-1 .8-1.2.4-1.2-1.5 0zM284.5 40c-1.3.6-1.5.9-.5.9.8 0 2.2-.4 3-.9 1.8-1.2.2-1.2-2.5 0zM279.8 41.7c.7.3 1.6.2 1.9-.1.4-.3-.2-.6-1.3-.5-1.1 0-1.4.3-.6.6zM245.2 60c0 1.4.2 1.9.5 1.2.2-.6.2-1.8 0-2.5-.3-.6-.5-.1-.5 1.3zM386 92.1c0 1.8.2 1.9 1.5.9.8-.7 1.5-1.6 1.5-2.1s-.7-.9-1.5-.9c-.9 0-1.5.9-1.5 2.1zM368.1 97.6c0 1.1.3 1.4.6.6.3-.7.2-1.6-.1-1.9-.3-.4-.6.2-.5 1.3zM370.7 96.7c-.4.3-.7 1.3-.7 2.2.1 1.3.3 1.3 1.1-.2 1.1-1.9.8-3.3-.4-2zM131 247.4c0 .2.7.9 1.5 1.6.9.7 1.5.8 1.5.2 0-.5-.7-1.2-1.5-1.6-.8-.3-1.5-.4-1.5-.2zM148 59.3c0 .7.6 2.1 1.3 3.1 1.1 1.5 1.5 1.6 2.5.3.7-.8 1-2.2.6-3.1-.7-1.9-4.4-2.2-4.4-.3zM1.3 67.6c-1.5 1.5-1.7 2.8-.4 1.9.5-.3 1.2-.1 1.5.4.3.4 4.7.9 9.8 1 5.1.1 16 .6 24.2 1.1 8.2.6 15.1.8 15.3.6.3-.2-.6-1.3-1.8-2.5-1.9-1.8-5.2-2.2-8.9-1.1-.3.1-2.9.1-5.7 0-3.5-.1-5.3.3-5.3 1 0 1-.3 1-1.5 0-.9-.7-3.7-1.1-7.5-.8-3.3.1-6 0-6-.4 0-.3-2-.5-4.5-.3-2.5.1-4.5-.2-4.5-.7 0-.5-.5-.6-1.1-.2-.6.3-1.4.2-1.8-.4-.4-.6-1.1-.5-1.8.4zM146 82.1c0 .5.5.7 1 .4.6-.3 1-.8 1-1.1 0-.2-.4-.4-1-.4-.5 0-1 .5-1 1.1zM157.3 92.3c-.2.4-.9.5-1.4.2-.5-.4-.9.4-1 1.7 0 1.3-.2 3.4-.5 4.8-1 6.5-.5 10.3 1.8 12.7 2.7 2.8 6.6 2.8 8.2-.2.6-1.1 1.5-2.3 2-2.7.5-.3.6-3.1.3-6.2-.4-4.4-.2-5.8 1-6.4 1.3-.8 1.3-1.2.2-3.1-1.2-1.7-2.2-2.1-5.7-1.9-2.4.2-4.6.6-4.9 1.1zM95.1 97.6c0 1.1.3 1.4.6.6.3-.7.2-1.6-.1-1.9-.3-.4-.6.2-.5 1.3zM190.3 145.6c-3.7 1.9-5.8 6.6-4.2 9.5 1.4 2.8 7.8 5.1 11.7 4.4 3.8-.7 10.2-6 10.2-8.4 0-5.3-11.3-8.8-17.7-5.5zM12.3 156c0 2.5.2 3.5.4 2.2.2-1.2.2-3.2 0-4.5-.2-1.2-.4-.2-.4 2.3zM13.2 164c0 1.9.2 2.7.5 1.7.2-.9.2-2.5 0-3.5-.3-.9-.5-.1-.5 1.8zM106.6 170.7c-.6 1.4-.5 1.5.5.6.7-.7 1-1.5.7-1.8-.3-.3-.9.2-1.2 1.2zM108.2 177c0 1.4.2 1.9.5 1.2.2-.6.2-1.8 0-2.5-.3-.6-.5-.1-.5 1.3zM19.3 183.5c0 2.7.2 3.8.4 2.2.2-1.5.2-3.7 0-5-.2-1.2-.4 0-.4 2.8zM59.6 209.5c.4.8.8 1.5 1 1.5.2 0 .4-.7.4-1.5s-.4-1.5-1-1.5c-.5 0-.7.7-.4 1.5zM8 243c0 .5.5 1 1.1 1 .5 0 .7-.5.4-1-.3-.6-.8-1-1.1-1-.2 0-.4.4-.4 1zM13 301c0 .5.5 1 1 1 .6 0 1-.5 1-1 0-.6-.4-1-1-1-.5 0-1 .4-1 1zM3.7 302.3c.3.7 1.2 1.9 2 2.9 1.3 1.4 1.2 1.8-.4 2.7-1.7 1-1.6 1 .4 1.1 1.2 0 2.9.3 3.7.6 1.4.6 1.4.2-.1-2.5-1-1.7-2.2-3.1-2.6-3.1-.5 0-.6-.4-.3-.9s-.3-1.1-1.4-1.4c-1.3-.3-1.8-.1-1.3.6zM12 307c0 .5.5 1 1.1 1 .5 0 .7-.5.4-1-.3-.6-.8-1-1.1-1-.2 0-.4.4-.4 1zM17.8 306.7c.7.3 1.6.2 1.9-.1.4-.3-.2-.6-1.3-.5-1.1 0-1.4.3-.6.6zM3.8 313.7c.7.3 1.6.2 1.9-.1.4-.3-.2-.6-1.3-.5-1.1 0-1.4.3-.6.6zM8.8 317.2c-3.5 1.2-3.6 2.8-.2 2.8 1.4 0 2.3-.4 1.9-1-.3-.6.3-1 1.4-1 2.2 0 6.1 3.2 6.1 5 0 .5.7 1 1.5 1s1.5-.4 1.5-.9c0-2.1-1.3-4.1-2.6-4.1-.8 0-1.7-.7-2-1.5-.7-1.7-3.6-1.8-7.6-.3zM96.5 319c.3.5.8 1 1.1 1 .2 0 .4-.5.4-1 0-.6-.5-1-1.1-1-.5 0-.7.4-.4 1zM2.1 320.6c0 1.1.3 1.4.6.6.3-.7.2-1.6-.1-1.9-.3-.4-.6.2-.5 1.3zM.8 326.7c.7.3 1.6.2 1.9-.1.4-.3-.2-.6-1.3-.5-1.1 0-1.4.3-.6.6zM110 328.5c0 .8.2 1.5.4 1.5s.6-.7 1-1.5c.3-.8.1-1.5-.4-1.5-.6 0-1 .7-1 1.5zM113.2 328.9c-1.1.7-1.1.9.2 1.4 1 .4 1.6.1 1.6-.8 0-1.7-.1-1.7-1.8-.6zM101.7 330.1c.8.8 1.6.8 3 0 1.6-.9 1.4-1-1.1-1.1-2.2 0-2.7.3-1.9 1.1zM135.7 336.9c-.4 1.7-.2 2.1.8 1.7.8-.3 1.6.3 1.8 1.2.4 1.4.5 1.4.6.1 0-.8-.5-2.3-1.2-3.4-1.3-1.7-1.4-1.7-2 .4zM96 338c0 .5.5 1 1 1 .6 0 1-.5 1-1 0-.6-.4-1-1-1-.5 0-1 .4-1 1zM98.7 339.7c-1.2 1.2-.7 2.2.8 1.7.8-.4 1.5-1 1.5-1.5 0-1.1-1.4-1.2-2.3-.2zM102 341.1c0 .5.5.7 1 .4.6-.3 1-.8 1-1.1 0-.2-.4-.4-1-.4-.5 0-1 .5-1 1.1zM125.8 345.7c.7.3 1.6.2 1.9-.1.4-.3-.2-.6-1.3-.5-1.1 0-1.4.3-.6.6zM92 349.4c0 .8-.6 1.7-1.2 1.9-.7.3-.3.6 1 .6 1.6.1 2.2-.5 2.2-1.9 0-1.1-.4-2-1-2-.5 0-1 .6-1 1.4zM122.5 349c-.3.5-.1 1 .4 1 .6 0 1.1-.5 1.1-1 0-.6-.2-1-.4-1-.3 0-.8.4-1.1 1zM113 351.9c0 .5.7 1.1 1.5 1.5.9.3 1.5 0 1.5-.9 0-.8-.7-1.5-1.5-1.5s-1.5.4-1.5.9zM60.5 380c-.3.5-.2 1 .4 1 .5 0 1.3-.5 1.6-1 .3-.6.2-1-.4-1-.5 0-1.3.4-1.6 1zM16.5 391c-2.7 1.1-6 1.9-7.2 2-1.2 0-2.5.5-2.8 1-.7 1.2 5.8.4 9-1 1.1-.5 4.3-1.5 7-2.3 4.1-1.2 4.4-1.5 2-1.5-1.6 0-5.2.8-8 1.8zM33 394.9c0 .7-.4 1-.9.6-.5-.3-1.2-.1-1.6.5-.3.5.1 1 .9 1 1.7 0 3.1-1.8 2.2-2.7-.3-.4-.6-.1-.6.6zM.8 395.7c.7.3 1.6.2 1.9-.1.4-.3-.2-.6-1.3-.5-1.1 0-1.4.3-.6.6zM16 399c-.9.6-1 1-.3 1 .6 0 1.5-.5 1.8-1 .8-1.2.4-1.2-1.5 0zM23.5 399l-4 .7 4.8.2c2.6 0 4.7-.4 4.7-.9 0-.6-.3-.9-.7-.9-.5.1-2.6.5-4.8.9z"/></svg>