<?xml version="1.0" standalone="no"?>
<!DOCTYPE svg PUBLIC "-//W3C//DTD SVG 20010904//EN"
 "http://www.w3.org/TR/2001/REC-SVG-20010904/DTD/svg10.dtd">
<svg version="1.0" xmlns="http://www.w3.org/2000/svg"
 width="400.000000pt" height="400.000000pt" viewBox="0 0 400.000000 400.000000"
 preserveAspectRatio="xMidYMid meet">
<metadata>
Created by potrace 1.11, written by Peter Selinger 2001-2013
</metadata>
<g transform="translate(0.000000,400.000000) scale(0.100000,-0.100000)"
fill="#000000" stroke="none">
<path d="M3074 3985 c-24 -18 -7 -19 26 0 16 9 19 14 9 15 -8 0 -24 -7 -35
-15z"/>
<path d="M3294 3985 c5 -15 2 -17 -26 -11 -20 3 -28 3 -20 -3 11 -6 10 -9 -5
-14 -10 -3 -171 -59 -357 -126 -257 -91 -349 -120 -380 -118 -40 3 -193 -36
-210 -53 -7 -7 6 -10 34 -10 25 0 51 -4 58 -9 11 -7 42 -56 42 -67 0 -15 -81
-85 -101 -88 -14 -1 -30 -5 -36 -9 -6 -4 -14 -3 -18 2 -3 6 -26 20 -50 32 -25
12 -45 28 -45 35 0 10 20 30 89 86 33 28 -14 17 -106 -24 -96 -42 -100 -43
-211 -43 -76 0 -112 4 -112 11 0 6 -19 24 -41 39 -31 20 -59 29 -114 34 -60 6
-78 11 -100 33 -14 14 -37 28 -52 31 -34 6 -81 -10 -87 -31 -12 -37 -15 -101
-6 -107 5 -3 12 -28 16 -55 4 -27 10 -47 15 -44 5 2 11 -7 15 -21 3 -13 10
-22 15 -19 5 3 7 10 4 15 -8 12 109 18 121 6 9 -8 -19 -67 -31 -67 -8 0 -17
-5 -21 -12 -5 -8 -1 -9 12 -5 16 6 15 4 -3 -12 -13 -11 -23 -26 -23 -34 0 -8
-7 -17 -15 -21 -8 -3 -15 -12 -15 -20 0 -8 -8 -21 -18 -28 -16 -11 -37 -58
-27 -58 2 0 17 12 33 28 65 61 81 72 98 71 18 0 17 -1 -1 -9 -13 -6 -15 -9 -5
-9 8 -1 32 -17 53 -36 21 -19 42 -35 47 -35 10 0 48 -63 56 -95 3 -14 9 -25
13 -25 14 0 32 -100 21 -120 -7 -13 -6 -33 2 -65 11 -42 15 -45 44 -45 18 0
35 4 39 9 3 6 20 4 41 -5 28 -12 43 -13 67 -5 22 8 34 8 45 -1 8 -7 26 -14 40
-16 14 -2 34 -8 44 -13 22 -12 23 -6 2 26 -9 14 -12 29 -8 37 5 7 9 24 10 38
9 132 57 231 131 269 23 11 83 -3 83 -20 0 -5 7 -9 15 -9 8 0 15 -4 15 -10 0
-5 -9 -10 -21 -10 -19 0 -19 -1 -5 -16 9 -8 21 -24 26 -35 10 -19 10 -19 -29
-3 -21 8 -47 14 -57 12 -12 -2 -20 5 -23 20 -6 22 -7 21 -25 -13 -11 -19 -25
-35 -33 -35 -10 0 -11 -5 -4 -19 6 -10 7 -22 3 -25 -4 -4 1 -12 11 -17 19 -11
23 -59 5 -77 -8 -8 -7 -22 6 -57 14 -35 23 -45 40 -45 12 0 31 -6 41 -14 18
-13 18 -14 -1 -18 -57 -15 -109 -2 -98 26 2 6 -5 12 -16 13 -23 2 -36 -19 -24
-39 5 -7 9 -17 10 -23 1 -5 7 -30 14 -55 11 -43 11 -45 -14 -65 -28 -22 -33
-41 -13 -48 9 -3 9 -8 1 -18 -16 -22 -16 -75 1 -89 19 -16 19 -37 0 -56 -8 -9
-15 -26 -15 -39 0 -28 -37 -95 -52 -95 -6 0 -18 -8 -27 -18 -11 -13 -30 -18
-61 -17 -25 0 -56 -5 -70 -11 -20 -10 -29 -9 -45 2 -10 8 -36 14 -57 14 -27 0
-52 10 -85 34 -27 18 -70 44 -98 57 -27 13 -51 27 -53 31 -2 5 -14 5 -26 2
-16 -4 -33 3 -55 22 -17 14 -35 24 -38 20 -4 -3 -19 6 -35 21 l-28 27 0 -31
c0 -28 -8 -36 -98 -90 l-97 -60 -19 58 c-16 52 -17 67 -6 141 13 92 11 190 -5
195 -7 2 -11 -30 -10 -89 0 -89 -8 -120 -51 -196 -7 -12 -58 62 -103 152 -51
99 -84 146 -96 134 -7 -7 23 -78 42 -96 8 -8 19 -25 24 -36 6 -12 16 -32 24
-46 17 -29 20 -76 5 -85 -5 -3 -19 -1 -31 5 -30 17 -35 5 -10 -26 29 -37 28
-58 -4 -52 -20 4 -23 3 -14 -8 6 -7 8 -22 4 -34 -3 -11 -2 -20 4 -20 5 0 11
-10 13 -22 2 -13 9 -22 16 -20 6 1 12 -1 11 -5 -2 -16 14 -53 22 -53 5 0 9 15
9 34 0 19 2 41 5 49 4 9 -1 13 -16 13 -41 -2 -29 19 28 46 62 30 73 29 73 -6
0 -13 9 -35 20 -49 16 -21 19 -34 14 -69 -10 -65 -55 -104 -71 -61 -6 14 -7
13 -14 -5 -7 -18 -11 -19 -43 -10 -47 15 -92 65 -106 119 -7 24 -14 100 -16
169 -2 69 -7 145 -10 170 -8 56 -11 105 -15 240 -3 93 -1 105 14 105 9 0 17 5
16 10 0 6 -7 9 -15 7 -20 -4 -17 16 4 21 15 4 16 5 0 6 -18 1 -36 61 -24 80
10 15 343 122 391 126 22 1 46 3 53 4 7 1 12 15 12 36 0 19 4 35 9 35 8 0 12
-32 24 -180 2 -32 5 -28 26 40 13 41 34 99 47 128 22 51 29 112 12 112 -7 0
-138 -47 -248 -90 -30 -11 -131 -48 -225 -82 -93 -34 -173 -64 -178 -68 -6 -5
3 -140 18 -270 31 -263 51 -517 75 -967 4 -95 11 -177 14 -182 3 -5 13 -101
21 -213 18 -241 17 -218 7 -218 -16 0 -432 243 -537 314 -33 22 -65 41 -70 42
-6 1 -31 16 -57 33 -34 23 -51 43 -62 74 -16 43 -40 187 -33 194 6 5 96 -17
121 -30 16 -8 18 -6 13 8 -4 9 -7 19 -7 21 0 3 -29 18 -64 33 -35 16 -66 33
-70 39 -3 5 -12 63 -21 128 -18 143 -23 164 -40 158 -8 -3 -14 8 -18 34 -5 28
-13 42 -32 50 -21 10 -25 18 -26 59 0 27 -2 56 -4 66 -2 9 1 17 6 17 5 0 9 13
9 29 0 35 30 53 31 18 0 -12 6 -40 13 -62 l13 -40 4 44 c3 28 0 48 -8 57 -17
16 -16 36 1 60 13 17 15 18 21 2 4 -9 7 -36 8 -60 1 -24 7 -42 12 -41 14 3 18
38 10 90 -6 41 -9 44 -33 41 -27 -3 -27 -2 -35 70 -9 82 -1 102 41 102 14 0
22 3 18 7 -4 4 7 12 25 18 18 6 35 17 37 25 6 16 -53 8 -151 -21 l-67 -21 0
-131 c0 -73 5 -159 10 -193 5 -33 17 -125 25 -204 8 -79 24 -211 35 -293 22
-166 25 -236 10 -221 -5 5 -16 66 -24 134 -26 213 -45 352 -51 358 -3 3 -5
-164 -5 -370 0 -340 2 -376 17 -382 10 -4 23 1 35 14 10 11 24 20 30 20 7 0 8
14 4 40 -5 31 -3 40 8 40 15 0 28 -48 15 -56 -14 -8 20 -37 58 -50 19 -7 47
-9 66 -5 23 6 40 3 62 -11 38 -23 38 -23 118 -47 57 -18 160 -71 177 -91 14
-16 123 -100 131 -100 4 0 6 -6 3 -14 -3 -7 2 -16 11 -20 9 -3 13 -10 10 -16
-3 -5 3 -10 15 -10 12 0 18 -4 15 -10 -3 -5 -1 -10 5 -10 6 0 9 -4 6 -8 -3 -5
7 -15 22 -23 67 -34 142 -100 142 -125 0 -9 4 -13 9 -9 5 3 12 1 15 -4 4 -5
-6 -14 -21 -20 -19 -8 -21 -10 -6 -7 19 3 21 0 16 -31 -4 -24 -2 -38 7 -43 11
-7 11 -11 1 -24 -11 -13 -11 -16 2 -16 21 0 29 -28 11 -38 -9 -5 -12 -15 -8
-25 6 -17 21 -22 56 -19 10 1 18 -3 18 -9 0 -5 -3 -8 -7 -6 -22 13 -47 -11
-49 -46 -2 -23 2 -36 9 -34 7 1 11 -4 10 -10 -4 -18 3 -16 26 8 12 13 21 17
26 10 9 -16 25 -14 25 3 0 14 29 26 67 26 12 0 23 4 25 9 2 5 9 3 16 -5 11
-12 6 -14 -34 -14 -38 0 -45 -3 -40 -16 3 -9 6 -18 6 -20 0 -2 5 -4 11 -4 5 0
8 4 5 9 -8 12 46 21 64 10 11 -6 6 -8 -18 -9 -19 0 -31 -4 -27 -10 3 -5 13 -6
23 -3 9 3 14 2 9 -2 -4 -5 5 -14 20 -21 l28 -13 -28 4 c-15 2 -27 -1 -27 -6 0
-5 8 -9 18 -9 10 0 25 -8 34 -19 15 -18 14 -19 -8 -17 -14 0 -24 7 -24 16 -1
11 -4 10 -15 -4 -14 -19 -15 -18 -15 10 0 16 -4 24 -8 18 -4 -6 -14 -12 -22
-13 -64 -6 -91 -14 -79 -23 10 -7 8 -8 -8 -3 -12 3 -24 1 -27 -4 -4 -6 -13 -8
-21 -4 -8 3 -15 0 -15 -5 0 -16 14 -22 30 -12 16 10 42 2 34 -11 -3 -5 1 -9
10 -9 8 0 22 -3 31 -7 14 -5 16 -2 11 14 -4 14 -1 23 9 27 8 3 15 2 15 -3 0
-5 10 -11 22 -14 18 -5 19 -8 8 -22 -11 -13 -10 -15 6 -9 18 6 18 6 2 -11 -16
-17 -19 -17 -35 -3 -18 15 -48 14 -38 -2 6 -9 -33 -45 -41 -37 -3 3 3 16 15
28 11 12 18 25 16 28 -3 2 -12 -5 -21 -17 -8 -12 -24 -22 -35 -22 -10 0 -19
-4 -19 -9 0 -10 35 -21 72 -21 15 0 30 -5 33 -10 12 -19 38 -11 32 10 -6 24
-4 24 31 4 23 -14 24 -14 8 -1 -18 15 -18 17 0 34 15 16 17 16 12 1 -4 -10 -1
-19 8 -22 22 -8 26 -7 19 4 -4 6 7 15 24 21 17 6 31 17 31 25 0 8 5 14 11 14
6 0 8 9 4 23 -6 18 -5 20 6 9 17 -16 29 -15 29 3 0 8 12 17 28 21 15 3 33 7
39 10 18 5 16 -13 -2 -20 -8 -3 -12 -12 -9 -20 7 -17 44 -29 44 -13 0 6 3 8 6
4 3 -3 3 -15 -1 -27 -5 -17 -9 -19 -21 -9 -8 6 -18 9 -21 5 -8 -8 16 -26 35
-26 6 0 12 5 12 11 0 6 7 3 16 -6 9 -8 20 -44 24 -78 5 -34 16 -95 25 -136 9
-41 18 -104 20 -140 2 -36 7 -99 11 -138 l6 -73 195 0 c187 0 194 1 188 19 -3
11 -1 22 4 26 6 3 7 14 1 29 -5 15 -4 43 5 77 12 51 15 50 19 -11 1 -8 10 -35
20 -58 16 -35 18 -47 8 -63 -12 -19 5 -19 998 -19 l1010 0 0 1478 c0 812 -4
1471 -9 1464 -7 -11 -9 -11 -14 2 -4 9 -1 15 6 13 9 -1 13 117 15 521 l2 522
-341 0 c-245 0 -338 -3 -333 -11 4 -7 -1 -7 -16 1 -20 11 -22 10 -16 -5z m98
-150 c3 -13 0 -26 -6 -28 -14 -5 7 -43 22 -40 6 1 6 -12 1 -38 -5 -22 -7 -44
-4 -50 4 -5 0 -9 -7 -9 -9 0 -10 -2 -2 -8 8 -5 11 -39 9 -102 -11 -338 -16
-460 -30 -750 -33 -694 -59 -1055 -75 -1029 -6 8 -9 6 -12 -7 -5 -19 -8 -10
-23 62 -7 33 -28 26 -36 -12 -15 -79 -19 384 -4 589 3 38 1 67 -4 67 -19 0
-25 -40 -18 -134 2 -32 -28 -60 -76 -72 l-28 -6 7 72 c8 90 -6 475 -16 440
-20 -70 -48 -457 -40 -533 4 -26 4 -50 1 -52 -2 -3 -37 -5 -76 -5 -66 0 -73
-2 -83 -24 -12 -26 -14 -26 187 -42 77 -6 84 -5 78 10 -5 13 -2 17 10 14 21
-4 30 -38 13 -48 -24 -15 -37 -106 -40 -272 l-2 -108 -27 7 c-14 3 -27 10 -29
15 -5 11 -32 10 -32 -1 0 -13 22 -27 53 -35 15 -3 27 -13 27 -21 0 -17 -9 -16
-160 13 l-84 17 2 91 c4 104 1 108 -72 118 -56 7 -51 4 -60 32 -10 34 22 63
74 68 42 3 45 5 48 36 2 17 0 39 -3 48 -6 14 -9 13 -18 -8 -8 -20 -11 -22 -14
-8 -2 9 -10 15 -18 12 -7 -3 -16 -1 -20 5 -3 6 -21 11 -40 11 -33 0 -33 1 -59
83 -43 131 -61 161 -132 217 l-66 52 3 96 c1 53 8 115 15 137 12 41 26 106 30
138 1 10 9 24 19 31 11 8 16 20 12 29 -3 9 -1 17 4 19 23 8 38 86 39 203 0 66
3 130 6 142 5 19 25 26 153 57 80 19 164 38 186 41 l41 7 -3 -79 c-1 -43 -5
-142 -9 -220 -5 -101 -3 -143 4 -143 6 0 14 15 18 34 l6 34 105 1 c58 1 109 4
114 7 5 3 9 14 9 24 0 18 -7 20 -62 19 -35 -1 -87 -1 -115 0 l-53 1 2 40 c1
44 4 50 35 67 14 8 24 9 28 3 11 -18 35 -11 29 8 -4 10 -2 13 3 7 4 -5 19 -16
32 -23 21 -12 23 -12 18 2 -4 10 -1 16 8 16 8 0 15 8 15 17 0 13 3 14 12 5 7
-7 20 -12 30 -12 14 0 18 8 19 38 0 20 2 46 4 57 2 11 9 106 15 210 5 105 13
201 16 215 3 14 7 34 9 45 2 11 8 39 13 62 5 23 7 44 5 47 -3 3 4 4 16 3 14
-1 21 -8 21 -22 0 -16 -2 -17 -10 -5 -11 17 -13 10 -4 -14 9 -24 24 -9 24 25
0 35 15 31 22 -6z m27 -15 c0 -9 -4 -8 -9 5 -5 11 -9 27 -9 35 0 9 4 8 9 -5 5
-11 9 -27 9 -35z m-334 18 c-22 -6 -43 -15 -46 -21 -4 -5 -12 -6 -18 -3 -6 4
-11 4 -11 -1 0 -4 -34 -19 -75 -32 -41 -14 -73 -27 -70 -29 2 -2 34 5 70 17
36 12 70 19 75 16 6 -4 10 -1 10 4 0 6 12 11 28 11 15 0 45 7 67 15 48 17 65
18 65 5 0 -5 -6 -10 -14 -10 -7 0 -16 -9 -19 -20 -6 -23 11 -26 38 -6 10 7 16
19 13 27 -4 10 6 15 37 17 37 2 44 -1 50 -19 4 -11 2 -26 -3 -31 -6 -6 -8 -17
-5 -25 5 -13 1 -12 -21 2 -18 12 -26 24 -23 37 3 10 1 16 -4 12 -5 -3 -9 -10
-9 -16 0 -6 -8 -17 -17 -25 -16 -12 -15 -13 10 -7 30 7 38 -9 10 -21 -31 -14
-47 -17 -78 -16 -20 0 -25 -2 -17 -8 11 -7 10 -10 -3 -15 -9 -3 -25 -6 -35 -6
-10 0 -25 -6 -32 -12 -16 -16 -78 -38 -105 -38 -19 0 -65 -39 -47 -41 18 -1
-380 -119 -400 -119 -6 1 0 7 14 15 14 8 22 14 18 15 -4 0 4 24 17 53 14 28
25 62 25 75 0 14 6 22 18 22 9 0 24 5 32 10 10 6 2 8 -25 3 -28 -4 -37 -2 -30
5 14 15 495 171 525 170 18 0 13 -3 -15 -10z m-615 -470 l0 -73 -30 45 c-16
25 -30 57 -30 73 0 23 4 27 30 27 l30 0 0 -72z m-855 -38 c3 -5 1 -10 -4 -10
-6 0 -11 5 -11 10 0 6 2 10 4 10 3 0 8 -4 11 -10z m2322 -166 c3 -10 1 -31 -5
-47 -9 -22 -9 -33 -1 -38 8 -5 8 -9 -1 -14 -7 -4 -16 -2 -20 4 -5 9 -10 8 -20
-4 -18 -22 -37 -18 -42 9 -6 29 16 77 25 55 4 -10 6 -10 6 -1 1 7 -6 15 -14
18 -8 4 -12 10 -9 15 3 5 9 7 14 4 5 -3 11 -1 15 5 10 16 45 12 52 -6z m-1532
-24 c3 -6 -1 -7 -9 -4 -18 7 -21 14 -7 14 6 0 13 -4 16 -10z m1327 -106 c-5
-11 -7 -25 -5 -32 4 -9 -5 -12 -31 -9 -20 2 -36 1 -36 -3 0 -4 -14 -7 -31 -7
-28 0 -30 3 -27 31 2 20 9 31 18 31 10 0 14 -8 12 -22 -2 -13 2 -23 9 -23 7 0
9 10 7 25 -3 14 -1 28 3 31 5 3 9 0 9 -7 0 -9 4 -9 15 1 8 6 19 9 24 6 5 -4
13 -1 16 5 12 19 28 -6 17 -27z m-144 -24 c-1 -22 -5 -40 -9 -40 -4 0 -6 17
-4 38 5 45 4 42 10 42 3 0 4 -18 3 -40z m-1168 -1 c0 -5 -4 -9 -10 -9 -5 0
-10 7 -10 16 0 8 5 12 10 9 6 -3 10 -10 10 -16z m1529 -59 c-6 -4 -20 -5 -30
-3 -13 4 -19 0 -19 -11 0 -10 6 -13 18 -9 9 3 14 3 10 -1 -11 -13 -68 -18 -68
-6 0 6 4 9 9 5 6 -3 15 3 20 14 8 13 21 19 42 19 17 -1 25 -4 18 -8z m-1379
-40 c0 -5 -2 -10 -4 -10 -3 0 -8 5 -11 10 -3 6 -1 10 4 10 6 0 11 -4 11 -10z
m-179 -68 c-6 -2 -11 -10 -11 -18 0 -18 -24 -18 -40 1 -9 10 -9 15 -1 15 14 0
51 36 52 53 1 6 4 -1 6 -18 3 -16 0 -31 -6 -33z m1323 -179 c-3 -54 -9 -156
-12 -228 -7 -123 -8 -130 -29 -133 -29 -4 -37 24 -28 101 4 34 9 79 10 102 3
46 13 75 26 75 6 0 9 10 7 23 -3 24 11 137 19 150 11 18 12 1 7 -90z m-90 27
c3 -22 1 -115 -5 -207 -17 -265 -19 -238 16 -238 17 0 33 5 37 10 10 13 9 -94
-1 -119 -4 -11 -16 -20 -27 -21 -10 -1 -34 -5 -52 -9 l-33 -8 30 54 c17 30 31
58 31 62 0 3 -15 6 -32 5 -18 -2 -43 3 -54 9 -24 13 -37 61 -27 99 3 16 2 24
-4 20 -5 -4 -10 7 -10 24 0 21 4 28 14 25 10 -4 10 -1 0 15 -10 16 -9 21 3 29
8 5 10 10 4 10 -15 0 -25 38 -13 46 6 3 7 14 4 24 -9 27 14 101 36 121 10 9
19 21 19 28 0 6 7 11 16 11 13 0 14 3 5 14 -10 11 -8 17 6 25 28 16 30 14 37
-29z m-1381 -146 c-4 -11 -8 -12 -20 -3 -11 10 -11 14 -1 20 17 10 28 2 21
-17z m-2108 -264 c-3 -5 -14 -10 -23 -9 -14 0 -13 2 3 9 27 11 27 11 20 0z
m3542 -6 c-3 -3 -12 -4 -19 -1 -8 3 -5 6 6 6 11 1 17 -2 13 -5z m-170 -140
c-3 -3 -12 -4 -19 -1 -8 3 -5 6 6 6 11 1 17 -2 13 -5z m-203 -398 c-8 -20 -24
-21 -24 0 0 8 5 12 10 9 6 -3 10 -1 10 6 0 7 2 10 5 7 3 -3 3 -13 -1 -22z
m-128 -33 c-11 -11 -19 6 -11 24 8 17 8 17 12 0 3 -10 2 -21 -1 -24z m-1776
-102 c-11 -42 -16 -46 -44 -35 -23 9 -20 19 16 60 36 41 44 34 28 -25z m1900
-28 c0 -15 -2 -15 -24 -7 -23 9 -20 23 4 21 11 -1 20 -7 20 -14z m340 -8 c0
-8 -3 -15 -7 -16 -5 0 -16 -2 -25 -4 -10 -2 -18 1 -18 5 0 9 29 29 43 30 4 0
7 -7 7 -15z m-2519 -70 c27 -5 47 -1 76 14 39 20 83 24 83 9 0 -4 6 -8 14 -8
9 0 13 7 11 20 -4 18 -2 19 19 5 12 -8 25 -13 28 -9 3 3 9 1 13 -5 3 -6 3 -11
-2 -11 -15 0 -14 -170 1 -224 8 -28 15 -81 15 -118 1 -59 -1 -68 -19 -78 -19
-10 -26 -7 -55 23 -23 24 -37 31 -44 24 -7 -7 -20 0 -41 23 -16 17 -30 27 -30
20 0 -6 -5 -8 -10 -5 -6 4 -8 11 -5 16 4 5 2 9 -4 9 -5 0 -22 11 -37 25 -15
14 -33 25 -40 25 -8 0 -14 7 -14 16 0 13 -3 14 -14 5 -18 -15 -21 -6 -36 95
-7 43 -15 95 -19 114 -4 19 -5 43 -3 52 3 16 7 15 40 -7 20 -13 53 -27 73 -30z
m2509 5 c0 -5 -7 -10 -16 -10 -8 0 -12 5 -9 10 3 6 10 10 16 10 5 0 9 -4 9
-10z m-2600 -721 c0 -5 -7 -9 -15 -9 -9 0 -12 6 -9 15 6 15 24 11 24 -6z m43
-6 c-7 -2 -19 -2 -25 0 -7 3 -2 5 12 5 14 0 19 -2 13 -5z m217 -145 c0 -8 -12
-12 -32 -11 -46 2 -48 5 -8 13 19 4 36 8 38 9 1 0 2 -5 2 -11z m1290 -54 c-7
-7 -20 -14 -29 -14 -14 1 -14 2 2 14 9 7 17 20 17 28 0 25 15 31 18 8 2 -11
-2 -28 -8 -36z m-1326 17 c14 -5 16 -10 7 -15 -16 -10 -63 2 -56 14 7 12 22
12 49 1z m1258 -223 c-7 -7 -16 -7 -29 1 -10 6 -13 11 -5 11 7 0 10 5 6 11 -4
7 1 7 16 -1 15 -8 19 -15 12 -22z m-85 -194 c-3 -3 -12 -4 -19 -1 -8 3 -5 6 6
6 11 1 17 -2 13 -5z m203 -64 c0 -5 -4 -10 -9 -10 -6 0 -13 5 -16 10 -3 6 1
10 9 10 9 0 16 -4 16 -10z"/>
<path d="M2611 2914 c0 -11 3 -14 6 -6 3 7 2 16 -1 19 -3 4 -6 -2 -5 -13z"/>
<path d="M3023 2858 c-17 -23 -24 -50 -11 -46 7 3 15 16 19 31 8 30 6 33 -8
15z"/>
<path d="M2933 2853 c-18 -2 -33 -8 -33 -14 0 -14 54 -11 76 6 20 15 19 16
-43 8z"/>
<path d="M2922 2766 c-54 -6 -90 -15 -85 -20 4 -5 -12 -6 -40 -3 -70 10 -227
-3 -227 -18 0 -12 55 -13 220 -1 41 3 107 7 145 9 138 6 135 5 135 27 0 23 -5
23 -148 6z"/>
<path d="M3245 1890 c-3 -5 -1 -10 4 -10 6 0 11 5 11 10 0 6 -2 10 -4 10 -3 0
-8 -4 -11 -10z"/>
<path d="M2790 3730 c-9 -6 -10 -10 -3 -10 6 0 15 5 18 10 8 12 4 12 -15 0z"/>
<path d="M2845 3600 c-13 -6 -15 -9 -5 -9 8 0 22 4 30 9 18 12 2 12 -25 0z"/>
<path d="M2798 3583 c7 -3 16 -2 19 1 4 3 -2 6 -13 5 -11 0 -14 -3 -6 -6z"/>
<path d="M2452 3400 c0 -14 2 -19 5 -12 2 6 2 18 0 25 -3 6 -5 1 -5 -13z"/>
<path d="M3860 3079 c0 -18 2 -19 15 -9 8 7 15 16 15 21 0 5 -7 9 -15 9 -9 0
-15 -9 -15 -21z"/>
<path d="M3681 3024 c0 -11 3 -14 6 -6 3 7 2 16 -1 19 -3 4 -6 -2 -5 -13z"/>
<path d="M3707 3033 c-4 -3 -7 -13 -7 -22 1 -13 3 -13 11 2 11 19 8 33 -4 20z"/>
<path d="M1310 1526 c0 -2 7 -9 15 -16 9 -7 15 -8 15 -2 0 5 -7 12 -15 16 -8
3 -15 4 -15 2z"/>
<path d="M1480 3407 c0 -7 6 -21 13 -31 11 -15 15 -16 25 -3 7 8 10 22 6 31
-7 19 -44 22 -44 3z"/>
<path d="M13 3324 c-15 -15 -17 -28 -4 -19 5 3 12 1 15 -4 3 -4 47 -9 98 -10
51 -1 160 -6 242 -11 82 -6 151 -8 153 -6 3 2 -6 13 -18 25 -19 18 -52 22 -89
11 -3 -1 -29 -1 -57 0 -35 1 -53 -3 -53 -10 0 -10 -3 -10 -15 0 -9 7 -37 11
-75 8 -33 -1 -60 0 -60 4 0 3 -20 5 -45 3 -25 -1 -45 2 -45 7 0 5 -5 6 -11 2
-6 -3 -14 -2 -18 4 -4 6 -11 5 -18 -4z"/>
<path d="M1460 3179 c0 -5 5 -7 10 -4 6 3 10 8 10 11 0 2 -4 4 -10 4 -5 0 -10
-5 -10 -11z"/>
<path d="M1573 3077 c-2 -4 -9 -5 -14 -2 -5 4 -9 -4 -10 -17 0 -13 -2 -34 -5
-48 -10 -65 -5 -103 18 -127 27 -28 66 -28 82 2 6 11 15 23 20 27 5 3 6 31 3
62 -4 44 -2 58 10 64 13 8 13 12 2 31 -12 17 -22 21 -57 19 -24 -2 -46 -6 -49
-11z"/>
<path d="M951 3024 c0 -11 3 -14 6 -6 3 7 2 16 -1 19 -3 4 -6 -2 -5 -13z"/>
<path d="M1903 2544 c-37 -19 -58 -66 -42 -95 14 -28 78 -51 117 -44 38 7 102
60 102 84 0 53 -113 88 -177 55z"/>
<path d="M123 2440 c0 -25 2 -35 4 -22 2 12 2 32 0 45 -2 12 -4 2 -4 -23z"/>
<path d="M132 2360 c0 -19 2 -27 5 -17 2 9 2 25 0 35 -3 9 -5 1 -5 -18z"/>
<path d="M1066 2293 c-6 -14 -5 -15 5 -6 7 7 10 15 7 18 -3 3 -9 -2 -12 -12z"/>
<path d="M1082 2230 c0 -14 2 -19 5 -12 2 6 2 18 0 25 -3 6 -5 1 -5 -13z"/>
<path d="M193 2165 c0 -27 2 -38 4 -22 2 15 2 37 0 50 -2 12 -4 0 -4 -28z"/>
<path d="M596 1905 c4 -8 8 -15 10 -15 2 0 4 7 4 15 0 8 -4 15 -10 15 -5 0 -7
-7 -4 -15z"/>
<path d="M80 1570 c0 -5 5 -10 11 -10 5 0 7 5 4 10 -3 6 -8 10 -11 10 -2 0 -4
-4 -4 -10z"/>
<path d="M130 990 c0 -5 5 -10 10 -10 6 0 10 5 10 10 0 6 -4 10 -10 10 -5 0
-10 -4 -10 -10z"/>
<path d="M37 977 c3 -7 12 -19 20 -29 13 -14 12 -18 -4 -27 -17 -10 -16 -10 4
-11 12 0 29 -3 37 -6 14 -6 14 -2 -1 25 -10 17 -22 31 -26 31 -5 0 -6 4 -3 9
3 5 -3 11 -14 14 -13 3 -18 1 -13 -6z"/>
<path d="M120 930 c0 -5 5 -10 11 -10 5 0 7 5 4 10 -3 6 -8 10 -11 10 -2 0 -4
-4 -4 -10z"/>
<path d="M178 933 c7 -3 16 -2 19 1 4 3 -2 6 -13 5 -11 0 -14 -3 -6 -6z"/>
<path d="M38 863 c7 -3 16 -2 19 1 4 3 -2 6 -13 5 -11 0 -14 -3 -6 -6z"/>
<path d="M88 828 c-35 -12 -36 -28 -2 -28 14 0 23 4 19 10 -3 6 3 10 14 10 22
0 61 -32 61 -50 0 -5 7 -10 15 -10 8 0 15 4 15 9 0 21 -13 41 -26 41 -8 0 -17
7 -20 15 -7 17 -36 18 -76 3z"/>
<path d="M965 810 c3 -5 8 -10 11 -10 2 0 4 5 4 10 0 6 -5 10 -11 10 -5 0 -7
-4 -4 -10z"/>
<path d="M21 794 c0 -11 3 -14 6 -6 3 7 2 16 -1 19 -3 4 -6 -2 -5 -13z"/>
<path d="M8 733 c7 -3 16 -2 19 1 4 3 -2 6 -13 5 -11 0 -14 -3 -6 -6z"/>
<path d="M1100 715 c0 -8 2 -15 4 -15 2 0 6 7 10 15 3 8 1 15 -4 15 -6 0 -10
-7 -10 -15z"/>
<path d="M1132 711 c-11 -7 -11 -9 2 -14 10 -4 16 -1 16 8 0 17 -1 17 -18 6z"/>
<path d="M1017 699 c8 -8 16 -8 30 0 16 9 14 10 -11 11 -22 0 -27 -3 -19 -11z"/>
<path d="M1357 631 c-4 -17 -2 -21 8 -17 8 3 16 -3 18 -12 4 -14 5 -14 6 -1 0
8 -5 23 -12 34 -13 17 -14 17 -20 -4z"/>
<path d="M960 620 c0 -5 5 -10 10 -10 6 0 10 5 10 10 0 6 -4 10 -10 10 -5 0
-10 -4 -10 -10z"/>
<path d="M987 603 c-12 -12 -7 -22 8 -17 8 4 15 10 15 15 0 11 -14 12 -23 2z"/>
<path d="M1020 589 c0 -5 5 -7 10 -4 6 3 10 8 10 11 0 2 -4 4 -10 4 -5 0 -10
-5 -10 -11z"/>
<path d="M1258 543 c7 -3 16 -2 19 1 4 3 -2 6 -13 5 -11 0 -14 -3 -6 -6z"/>
<path d="M920 506 c0 -8 -6 -17 -12 -19 -7 -3 -3 -6 10 -6 16 -1 22 5 22 19 0
11 -4 20 -10 20 -5 0 -10 -6 -10 -14z"/>
<path d="M1225 510 c-3 -5 -1 -10 4 -10 6 0 11 5 11 10 0 6 -2 10 -4 10 -3 0
-8 -4 -11 -10z"/>
<path d="M1130 481 c0 -5 7 -11 15 -15 9 -3 15 0 15 9 0 8 -7 15 -15 15 -8 0
-15 -4 -15 -9z"/>
<path d="M605 200 c-3 -5 -2 -10 4 -10 5 0 13 5 16 10 3 6 2 10 -4 10 -5 0
-13 -4 -16 -10z"/>
<path d="M165 90 c-27 -11 -60 -19 -72 -20 -12 0 -25 -5 -28 -10 -7 -12 58 -4
90 10 11 5 43 15 70 23 41 12 44 15 20 15 -16 0 -52 -8 -80 -18z"/>
<path d="M330 51 c0 -7 -4 -10 -9 -6 -5 3 -12 1 -16 -5 -3 -5 1 -10 9 -10 17
0 31 18 22 27 -3 4 -6 1 -6 -6z"/>
<path d="M8 43 c7 -3 16 -2 19 1 4 3 -2 6 -13 5 -11 0 -14 -3 -6 -6z"/>
<path d="M160 10 c-9 -6 -10 -10 -3 -10 6 0 15 5 18 10 8 12 4 12 -15 0z"/>
<path d="M235 10 l-40 -7 48 -2 c26 0 47 4 47 9 0 6 -3 9 -7 9 -5 -1 -26 -5
-48 -9z"/>
</g>
</svg>
