<?xml version="1.0" standalone="no"?>
<!DOCTYPE svg PUBLIC "-//W3C//DTD SVG 20010904//EN"
 "http://www.w3.org/TR/2001/REC-SVG-20010904/DTD/svg10.dtd">
<svg version="1.0" xmlns="http://www.w3.org/2000/svg"
 width="180.000000pt" height="180.000000pt" viewBox="0 0 180.000000 180.000000"
 preserveAspectRatio="xMidYMid meet">
<metadata>
Created by potrace 1.11, written by Peter Selinger 2001-2013
</metadata>
<g transform="translate(0.000000,180.000000) scale(0.100000,-0.100000)"
fill="#000000" stroke="none">
<path d="M410 1748 c-53 -65 -96 -154 -111 -227 -12 -57 -7 -316 7 -376 7 -28
6 -29 -9 -13 -25 25 -55 31 -87 18 -72 -30 -67 -209 9 -312 36 -49 104 -98
136 -98 17 0 25 -8 30 -27 3 -16 17 -44 30 -64 22 -33 22 -38 7 -52 -12 -12
-15 -34 -14 -86 l2 -69 -31 -7 c-43 -10 -112 -81 -127 -131 -7 -24 -12 -98
-12 -173 0 -110 2 -131 15 -131 13 0 15 20 15 123 0 67 5 139 10 159 24 86
112 144 191 127 41 -9 179 -83 179 -95 0 -3 -52 -73 -116 -156 -103 -135 -127
-174 -95 -153 6 3 59 69 117 146 58 76 108 139 110 139 2 0 13 -5 24 -12 42
-26 32 7 -14 48 -58 51 -146 100 -198 109 l-38 7 0 63 c0 76 16 97 47 62 11
-12 24 -32 27 -44 17 -54 102 -111 230 -153 71 -23 116 -56 116 -85 0 -25 17
-17 38 19 16 27 31 37 64 46 127 31 276 121 320 192 24 39 33 46 44 37 15 -12
18 -56 8 -107 -5 -27 -11 -30 -55 -36 -34 -5 -68 -20 -113 -51 -36 -24 -88
-56 -115 -70 -28 -14 -51 -30 -51 -35 0 -15 17 -12 59 10 30 15 41 17 48 7 6
-7 45 -76 88 -154 69 -125 95 -163 95 -135 0 4 -38 76 -84 159 l-84 153 46 33
c65 47 65 47 129 57 73 12 112 0 152 -45 42 -48 51 -91 51 -237 0 -121 1 -128
20 -128 19 0 20 7 20 117 0 141 -18 215 -66 272 -19 22 -50 45 -69 51 -34 11
-34 12 -32 69 1 40 -4 66 -16 85 -15 23 -16 29 -3 48 7 13 19 40 26 61 9 28
17 37 34 37 58 0 156 100 182 187 27 89 13 206 -26 218 -41 13 -59 13 -77 0
-30 -23 -38 -17 -13 10 17 18 20 28 12 38 -8 9 -8 32 -2 76 5 37 5 99 -1 153
-5 51 -7 106 -3 124 3 19 1 34 -6 39 -6 4 -8 15 -5 26 4 12 1 21 -10 25 -9 4
-23 21 -32 38 -8 17 -32 52 -51 79 l-36 47 -447 0 -447 0 -42 -52z m829 -162
c46 -24 99 -91 115 -147 21 -70 20 -102 -4 -124 -27 -25 -25 -36 10 -60 27
-18 28 -21 13 -37 -10 -11 -12 -18 -5 -18 7 0 12 -9 12 -20 0 -29 -42 -36 -88
-14 -54 27 -237 32 -299 9 -63 -24 -178 -26 -222 -3 -27 14 -59 18 -136 18
-106 0 -169 -12 -197 -37 -27 -24 -51 -9 -43 26 5 22 2 30 -12 36 -16 6 -14
10 16 36 l35 29 -24 24 c-20 22 -22 32 -17 79 13 130 114 236 187 197 10 -5
67 -17 127 -26 59 -9 111 -21 115 -28 4 -6 8 -7 8 -2 0 5 6 4 13 -2 9 -8 21
-7 42 3 17 7 76 20 133 29 57 9 117 23 135 30 42 19 53 19 86 2z m-466 -421
c24 -10 31 -45 17 -94 -16 -62 -53 -75 -190 -69 -126 6 -157 18 -166 64 -17
91 29 116 206 110 63 -2 123 -7 133 -11z m510 -5 c31 -15 42 -45 33 -94 -9
-49 -45 -61 -188 -61 -141 0 -158 10 -166 94 -4 50 -4 51 29 66 43 19 249 16
292 -5z m-348 -18 c6 -4 12 -23 13 -42 6 -52 28 -86 63 -99 41 -14 187 -14
244 0 52 13 66 28 74 76 4 25 13 38 29 44 20 8 22 5 22 -26 0 -29 4 -35 21
-35 15 0 19 -5 15 -15 -3 -8 -12 -59 -21 -112 -31 -191 -37 -219 -62 -265 -76
-140 -248 -228 -448 -228 -108 0 -174 20 -295 91 -125 73 -180 152 -201 290
-6 41 -17 110 -25 154 -18 100 -17 106 1 99 11 -5 15 1 15 20 0 28 1 29 24 20
9 -4 16 -18 16 -33 0 -44 25 -68 84 -82 67 -15 233 -8 262 11 22 13 44 69 44
108 0 11 8 23 18 25 28 8 96 7 107 -1z m-652 -41 c28 -26 35 -41 51 -118 10
-49 16 -102 14 -118 l-3 -30 -18 27 c-16 24 -17 31 -6 62 11 31 10 41 -12 93
-29 66 -66 96 -93 74 -18 -15 -22 -86 -5 -96 7 -5 10 3 8 21 -4 48 0 64 15 64
7 0 19 -7 26 -15 11 -13 10 -18 -6 -31 -18 -15 -18 -15 8 -10 37 8 49 -27 19
-58 -12 -12 -21 -35 -21 -50 0 -24 -2 -27 -15 -16 -26 22 -16 -4 17 -44 27
-33 35 -37 64 -33 29 5 32 3 36 -24 6 -37 -15 -39 -60 -6 -72 54 -111 133
-112 227 0 68 17 110 45 110 8 0 29 -13 48 -29z m1281 7 c25 -36 21 -142 -8
-204 -26 -57 -87 -121 -123 -130 -30 -8 -32 -5 -26 28 4 24 9 26 37 21 29 -4
37 0 64 33 33 40 43 66 17 44 -13 -11 -15 -8 -15 16 0 15 -9 38 -21 50 -29 31
-18 68 17 60 14 -4 24 -2 24 4 0 5 -7 10 -16 10 -19 0 -14 20 9 34 23 14 31 1
30 -45 -1 -23 2 -37 8 -34 15 10 11 81 -6 95 -27 23 -63 -4 -91 -65 -26 -59
-30 -90 -14 -100 6 -3 10 -14 10 -24 0 -23 -36 -69 -45 -59 -11 10 24 200 42
228 37 59 81 75 107 38z m-1264 -183 c-10 -30 -9 -40 4 -60 13 -20 14 -25 2
-25 -23 0 -35 97 -14 118 18 18 21 7 8 -33z m1190 0 c0 -44 -13 -85 -26 -85
-12 0 -11 5 2 25 13 20 14 31 5 56 -15 43 -14 54 4 39 8 -7 15 -23 15 -35z
m-830 -480 c0 -8 -2 -15 -5 -15 -16 0 -64 32 -90 60 l-30 32 63 -31 c34 -17
62 -38 62 -46z m486 10 c-11 -8 -25 -15 -30 -15 -6 1 0 7 14 15 32 19 40 18
16 0z m-416 -25 c32 -17 59 -20 153 -20 79 0 126 5 150 15 45 18 47 18 47 1 0
-15 -54 -40 -112 -50 -21 -4 -50 -18 -66 -31 -28 -24 -30 -24 -46 -6 -19 21
-73 46 -133 61 -32 8 -43 16 -43 30 0 25 2 25 50 0z"/>
<path d="M493 1264 c-24 -14 -43 -27 -43 -30 0 -3 22 -2 48 2 32 4 66 1 102
-10 50 -15 170 -22 170 -11 0 3 -9 15 -20 27 -13 14 -20 17 -20 8 0 -10 -4
-10 -17 2 -16 14 -122 38 -164 38 -8 0 -33 -12 -56 -26z"/>
<path d="M1095 1274 c-33 -8 -66 -15 -73 -17 -14 -3 -32 -26 -32 -39 0 -13 70
-9 135 7 71 17 139 19 165 5 16 -8 18 -7 14 4 -17 44 -115 62 -209 40z"/>
<path d="M595 1151 c-54 -5 -105 -26 -105 -42 0 -4 8 -10 17 -13 10 -4 14 -4
10 0 -17 18 18 34 74 34 l59 0 -6 -27 -6 -28 18 25 c9 14 19 27 21 29 2 3 14
-6 28 -19 18 -17 25 -20 25 -8 0 19 -42 58 -61 56 -8 -1 -41 -4 -74 -7z"/>
<path d="M1115 1153 c-53 -5 -70 -14 -86 -47 -9 -19 -9 -19 10 2 15 17 30 22
65 22 44 0 46 -1 40 -25 -8 -33 9 -32 33 1 17 23 23 25 41 15 14 -7 19 -17 15
-27 -5 -14 -3 -14 16 -3 11 8 21 16 21 19 0 12 -68 50 -86 48 -10 -1 -41 -3
-69 -5z"/>
<path d="M794 978 c-4 -13 -20 -38 -35 -56 -31 -35 -37 -68 -16 -95 18 -25
113 -47 151 -35 17 5 44 10 60 12 42 4 67 38 55 78 -9 32 -39 72 -39 52 0 -6
7 -25 16 -43 21 -43 13 -62 -24 -55 -19 4 -32 1 -41 -10 -20 -24 -86 -21 -111
6 -16 17 -23 19 -32 10 -9 -9 -9 -12 2 -12 7 0 10 -3 7 -6 -11 -11 -37 17 -37
40 0 13 14 38 30 56 17 18 30 44 30 57 0 29 -7 29 -16 1z"/>
<path d="M670 724 c0 -3 9 -17 20 -31 11 -14 20 -32 20 -39 0 -8 10 -16 23
-19 89 -20 117 -25 158 -25 80 0 106 10 166 66 l58 54 -100 -7 c-109 -9 -249
-8 -307 1 -21 4 -38 4 -38 0z m380 -25 c0 -5 -9 -13 -20 -19 -11 -6 -20 -17
-20 -25 0 -32 -111 -43 -213 -22 -51 10 -61 16 -71 42 l-13 30 169 1 c92 1
168 -3 168 -7z"/>
</g>
</svg>
